<svg width="151" height="42" viewBox="0 0 151 42" fill="none" xmlns="http://www.w3.org/2000/svg">
<path d="M86.8495 18.4307H91.6043V0.5H86.8495V18.4307Z" fill="white"/>
<path d="M84.3575 6.28911C84.3575 2.85697 81.9168 0.5 78.0001 0.5H67.702V18.4307H72.4568V12.1557H74.186L79.6027 18.4307H85.5017L79.6027 11.9507C82.5787 11.3098 84.3575 9.10779 84.3575 6.28911ZM77.4424 8.18437H72.4585V4.57304H77.4424C78.8655 4.57304 79.5786 5.41897 79.5786 6.39081C79.5786 7.36266 78.8671 8.18437 77.4424 8.18437Z" fill="white"/>
<path d="M98.8767 9.61954V9.28698C98.8767 6.62328 100.351 4.70219 103.402 4.70219H108.691V0.5H102.995C97.1219 0.5 94.1219 4.29053 94.1219 9.28537V9.64376C94.1219 15.202 97.5289 18.4291 102.768 18.4291H104.394L106.301 14.3561H103.505C100.657 14.3561 98.8767 12.7417 98.8767 9.61793V9.61954Z" fill="white"/>
<path d="M8.02095 0.5L0.163574 18.4307H5.40236L6.90236 14.7936H15.1411L16.6668 18.4307H22.0322L14.1748 0.5H8.02095ZM8.52896 10.8481L11.0209 4.85394L13.5129 10.8481H8.52896Z" fill="white"/>
<path d="M34.4649 11.7957L30.3975 0.5H22.9216V18.4307H27.5995V5.52067L32.3046 18.4307H36.5258L41.2293 5.52067V18.4307H45.9072V0.5H38.5081L34.4649 11.7957Z" fill="white"/>
<path d="M49.5434 18.4307H64.5963V14.3577H54.2982V11.489H64.3415V7.41593H54.2982V4.57304H64.5963V0.5H49.5434V18.4307Z" fill="white"/>
<path d="M114.465 0.5L106.607 18.4307H111.846L113.346 14.7936H121.585L123.111 18.4307H128.476L120.617 0.5H114.463H114.465ZM114.973 10.8481L117.465 4.85394L119.957 10.8481H114.973Z" fill="white"/>
<path d="M142.612 11.4373L135.365 0.5H129.364V18.4307H134.095V7.08338L141.569 18.4307H147.316V0.5H142.612V11.4373Z" fill="white"/>
<path d="M126.958 30.4852H122.585C121.644 30.4852 120.957 29.9218 120.957 29.05C120.957 28.1783 121.643 27.6407 122.585 27.6407H130.494L132.349 23.5676H122.559C118.516 23.5676 116.202 25.9747 116.202 29.2034C116.202 32.4321 118.439 34.5566 121.923 34.5566H126.297C127.261 34.5566 127.923 35.12 127.923 35.9918C127.923 36.8635 127.261 37.4253 126.297 37.4253H116.761V41.4984H126.322C130.316 41.4984 132.68 39.1414 132.68 35.6834C132.68 32.4047 130.595 30.4836 126.958 30.4836V30.4852Z" fill="white"/>
<path d="M96.662 29.3584C96.662 25.9262 94.2213 23.5693 90.3046 23.5693H80.0065V41.5H84.7613V35.225H86.4905L91.9072 41.5H97.8062L91.9072 35.0199C94.8815 34.379 96.662 32.177 96.662 29.3584ZM89.7453 31.2536H84.7613V27.6423H89.7453C91.17 27.6423 91.8815 28.4882 91.8815 29.4601C91.8815 30.4319 91.17 31.2536 89.7453 31.2536Z" fill="white"/>
<path d="M99.154 41.5H114.207V37.427H103.909V34.5582H113.952V30.4852H103.909V27.6423H114.207V23.5693H99.154V41.5Z" fill="white"/>
<path d="M71.6155 23.5693H61.1908V41.5H65.9456V35.6592H71.4633C75.4809 35.6592 77.9729 33.0972 77.9729 29.6151C77.9729 26.1329 75.5322 23.5693 71.6155 23.5693ZM71.0562 31.5878H65.9456V27.6439H71.0562C72.4809 27.6439 73.1924 28.5399 73.1924 29.6425C73.1924 30.7451 72.4809 31.5894 71.0562 31.5894V31.5878Z" fill="white"/>
<path d="M144.442 30.4852H140.069C139.128 30.4852 138.441 29.9218 138.441 29.05C138.441 28.1783 139.128 27.6407 140.069 27.6407H147.976L149.832 23.5676H140.043C136 23.5676 133.686 25.9747 133.686 29.2034C133.686 32.4321 135.923 34.5566 139.407 34.5566H143.781C144.747 34.5566 145.409 35.12 145.409 35.9918C145.409 36.8635 144.747 37.4253 143.781 37.4253H134.245V41.4984H143.806C147.798 41.4984 150.164 39.1414 150.164 35.6834C150.164 32.4047 148.079 30.4836 144.442 30.4836V30.4852Z" fill="white"/>
<path d="M22.9216 41.5H37.9745V37.427H27.6764V34.5582H37.7197V30.4852H27.6764V27.6423H37.9745V23.5693H22.9216V41.5Z" fill="white"/>
<path d="M60.3254 23.5693H54.2741L49.6459 28.9741L45.0177 23.5693H38.8142L46.6459 32.4321L38.6604 41.5H44.7132L49.569 35.8142L54.4264 41.5H60.6299L52.5963 32.3304L60.3254 23.5693Z" fill="white"/>
</svg>
