<svg width="120" height="44" viewBox="0 0 120 44" fill="none" xmlns="http://www.w3.org/2000/svg">
<g clip-path="url(#clip0_566_1990)">
<path d="M49.4512 29.1489H52.5764V21.303H45.8222V24.0005L49.3175 24.0149C48.639 25.2403 47.7385 26.3897 46.1327 26.3753C44.3624 26.4637 42.623 24.9751 42.5777 22.5119C42.5037 19.8432 44.3624 18.4265 46.0134 18.4861C47.0291 18.5293 48.2545 19.0762 48.6226 20.1968L51.8218 18.6774C50.4648 16.4218 48.2545 15.2704 46.1306 15.3609C42.1336 15.3321 38.9775 17.8241 38.8459 22.366C38.8459 26.7166 42.2817 29.1489 45.2465 29.3258C47.1031 29.4286 48.6082 28.7213 49.4491 27.6439V29.1489H49.4512ZM54.9059 29.1613H64.1809V26.2273H58.5781V23.5873H63.2968V20.7417H58.5925V18.4265H64.1809V15.4493H54.9059V29.1613ZM105.062 15.4493L105.076 24.0314C105.076 27.3499 107.097 29.2374 110.827 29.1633C114.442 29.0893 116.239 27.4959 116.547 24.0622V15.4514H112.92V23.6489C113.009 25.0347 112.301 25.9045 110.827 25.9497C109.456 25.9785 108.541 25.2568 108.66 23.6489V15.4514H105.062V15.4493ZM71.4039 21.8889C72.5471 21.7861 73.0529 21.2063 73.0816 20.1392C73.1104 19.1297 72.6355 18.4615 71.4039 18.3422C71.1366 18.3114 70.8405 18.3278 70.5157 18.3422H69.7426V21.8602L70.8858 21.891C71.0646 21.9054 71.2415 21.9054 71.4039 21.891V21.8889ZM71.4039 15.4637C72.8308 15.5069 73.9719 15.6714 74.9218 16.3684C75.991 17.199 76.54 18.3422 76.54 19.7815C76.54 21.9198 75.4276 23.2254 73.3942 23.7003L77.3562 29.1613H72.9192L71.4039 26.803L69.7426 24.1897V29.1613H66.1527V15.4493H70.3964C70.7377 15.4493 71.079 15.4637 71.4039 15.4637ZM84.5545 15.5089C85.743 15.6282 86.7196 15.9695 87.5831 16.5637C89.1992 17.7809 90.4164 19.6519 90.4904 22.3207C90.4164 25.4521 88.8579 27.426 87.1534 28.3759C86.4256 28.7316 85.5929 28.9701 84.5545 29.0873C84.0487 29.1469 83.5142 29.1613 82.922 29.1613H78.8407V15.4493H83.619C83.9315 15.4637 84.242 15.4781 84.5545 15.5089ZM84.5545 25.8366C85.8458 25.5241 86.6908 24.5022 86.6312 22.2303C86.5716 20.094 85.8005 19.1009 84.5545 18.7719C84.2729 18.6979 83.9603 18.6527 83.6499 18.6403H82.4758V25.9271H83.6026C83.9295 25.9271 84.2564 25.8962 84.5525 25.8366H84.5545ZM97.4009 15.4637H99.4796L104.511 29.1613H100.578L99.8353 26.6385H94.9377L94.2551 29.1613H90.3815L95.131 15.4637H97.4009ZM97.4009 23.8052H99.0046L97.4009 18.9673L97.2981 18.6403L95.7992 23.8052H97.403H97.4009Z" fill="white"/>
<path d="M-0.0159912 0V32.6422H32.6262V0H-0.0159912ZM16.1057 29.0359H13.7268V27.9092C12.8448 28.7254 11.6008 29.3793 9.88606 29.3793C5.29691 29.3793 2.99616 25.6187 2.99616 22.3763C2.99616 19.1338 5.27429 15.363 9.81821 15.363C14.3621 15.363 16.079 19.4237 16.079 19.4237L14.0229 20.6574C14.0229 20.6574 12.6063 17.9722 9.86345 17.9722C7.12064 17.9722 5.52924 20.3428 5.52924 22.3763C5.52924 24.4097 7.14532 26.7557 9.91074 26.7557C11.827 26.7557 12.9167 25.5899 13.4061 24.8723H9.88401V22.3639H16.1036V29.0338L16.1057 29.0359ZM22.7221 29.3793C21.0074 29.3793 19.7634 28.7254 18.8793 27.9092V29.0359H16.5046V22.366H22.7242V24.8744H19.2042C19.6935 25.5899 20.7833 26.7578 22.6995 26.7578C25.4649 26.7578 27.081 24.4118 27.081 22.3783C27.081 20.3449 25.4876 17.9742 22.7468 17.9742C20.0061 17.9742 18.5874 20.6594 18.5874 20.6594L16.5313 19.4258C16.5313 19.4258 18.2502 15.363 22.7941 15.363C27.338 15.363 29.6162 19.1359 29.6162 22.3763C29.6162 25.6166 27.3154 29.3793 22.7262 29.3793H22.7221Z" fill="white"/>
<path d="M113.995 41.5453C114.285 41.5453 114.53 41.4671 114.731 41.3129C114.933 41.1587 115.034 40.9593 115.034 40.7187V40.3651C115.034 40.3239 115.013 40.3054 114.974 40.3054H114.259C113.956 40.3054 113.718 40.363 113.543 40.4761C113.368 40.5912 113.282 40.7516 113.282 40.9593C113.282 41.1402 113.348 41.2841 113.479 41.3869C113.611 41.4918 113.784 41.5432 113.999 41.5432M114.197 37.2604C114.635 37.2604 115.023 37.3365 115.367 37.4866C115.71 37.6387 115.977 37.8443 116.169 38.1075C116.36 38.3707 116.456 38.6626 116.456 38.9854V42.3533C116.456 42.4684 116.399 42.5239 116.286 42.5239H115.206C115.091 42.5239 115.036 42.4664 115.036 42.3533V42.1107C115.036 42.0839 115.03 42.0696 115.015 42.0654C115.001 42.0613 114.984 42.0696 114.964 42.0901C114.655 42.4335 114.195 42.6041 113.582 42.6041C113.064 42.6041 112.649 42.4767 112.332 42.2217C112.015 41.9667 111.859 41.5905 111.859 41.0929C111.859 40.5953 112.04 40.1739 112.404 39.8881C112.768 39.6023 113.284 39.4604 113.956 39.4604H114.974C115.015 39.4604 115.034 39.4398 115.034 39.4008V39.189C115.034 38.9669 114.966 38.7942 114.826 38.6688C114.688 38.5454 114.489 38.4817 114.226 38.4817C114.024 38.4817 113.858 38.5146 113.726 38.5824C113.594 38.6503 113.506 38.7428 113.459 38.8641C113.418 38.9587 113.352 39.0019 113.257 38.9957L112.139 38.8539C112.085 38.8477 112.042 38.8312 112.013 38.8086C111.982 38.786 111.972 38.7531 111.978 38.712C112.011 38.4365 112.128 38.1877 112.326 37.9656C112.523 37.7436 112.786 37.5709 113.113 37.4454C113.44 37.3221 113.8 37.2583 114.197 37.2583V37.2604ZM109.419 40.9305C109.552 40.6817 109.62 40.3486 109.62 39.9333C109.62 39.4892 109.55 39.1438 109.408 38.895C109.24 38.6339 109.016 38.5023 108.732 38.5023C108.423 38.5023 108.187 38.6297 108.027 38.8847C107.866 39.154 107.784 39.5056 107.784 39.9436C107.784 40.3404 107.854 40.6694 107.996 40.9325C108.156 41.2224 108.403 41.3664 108.732 41.3664C109.028 41.3664 109.256 41.2224 109.417 40.9325L109.419 40.9305ZM109.63 35.6361C109.63 35.521 109.688 35.4654 109.801 35.4654H110.88C110.996 35.4654 111.051 35.523 111.051 35.6361V42.3512C111.051 42.4664 110.994 42.5219 110.88 42.5219H109.801C109.686 42.5219 109.63 42.4643 109.63 42.3512V42.0798C109.63 42.0531 109.622 42.0387 109.606 42.0346C109.589 42.0305 109.573 42.0387 109.56 42.0593C109.285 42.4232 108.902 42.6041 108.411 42.6041C107.955 42.6041 107.55 42.4684 107.196 42.195C106.842 41.9236 106.6 41.5638 106.464 41.1217C106.349 40.7989 106.293 40.3959 106.293 39.9127C106.293 39.4296 106.357 38.9978 106.485 38.6626C106.633 38.2329 106.875 37.8896 107.216 37.6346C107.556 37.3796 107.955 37.2522 108.411 37.2522C108.909 37.2522 109.291 37.4167 109.56 37.7456C109.575 37.7662 109.589 37.7724 109.606 37.7662C109.622 37.76 109.63 37.7436 109.63 37.7148V35.6382V35.6361ZM104.186 42.5219C104.071 42.5219 104.015 42.4643 104.015 42.3512V35.6361C104.015 35.521 104.073 35.4654 104.186 35.4654H105.265C105.38 35.4654 105.436 35.523 105.436 35.6361V42.3512C105.436 42.4664 105.378 42.5219 105.265 42.5219H104.186ZM100.676 41.3828C100.892 41.3828 101.077 41.315 101.231 41.1813C101.385 41.0477 101.497 40.8626 101.564 40.6262C101.618 40.4453 101.645 40.2088 101.645 39.921C101.645 39.6331 101.618 39.4008 101.564 39.2054C101.497 38.9772 101.385 38.7983 101.231 38.6709C101.077 38.5434 100.886 38.4796 100.656 38.4796C100.425 38.4796 100.246 38.5434 100.09 38.6709C99.9359 38.7983 99.8249 38.9772 99.7571 39.2054C99.7036 39.4008 99.6769 39.6393 99.6769 39.921C99.6769 40.2026 99.7036 40.4309 99.7571 40.6262C99.8249 40.8606 99.9359 41.0456 100.094 41.1813C100.253 41.315 100.446 41.3828 100.674 41.3828H100.676ZM100.676 42.6041C100.105 42.6041 99.6172 42.4561 99.2143 42.16C98.8113 41.8639 98.5358 41.461 98.3877 40.951C98.2931 40.6344 98.2458 40.2931 98.2458 39.923C98.2458 39.5139 98.2973 39.1561 98.398 38.8539C98.5522 38.3563 98.8298 37.9656 99.2307 37.6839C99.6316 37.4023 100.117 37.2604 100.688 37.2604C101.26 37.2604 101.712 37.4023 102.105 37.6839C102.498 37.9656 102.771 38.3522 102.928 38.8436C103.028 39.152 103.08 39.5056 103.08 39.9025C103.08 40.252 103.037 40.5912 102.948 40.9202C102.794 41.4445 102.516 41.8557 102.115 42.1559C101.714 42.454 101.237 42.6041 100.678 42.6041H100.676ZM95.7066 37.2604C96.2309 37.2604 96.64 37.4187 96.9361 37.7333C97.2322 38.0499 97.3802 38.492 97.3802 39.0636V42.3512C97.3802 42.4664 97.3227 42.5219 97.2096 42.5219H96.1301C96.015 42.5219 95.9595 42.4643 95.9595 42.3512V39.3761C95.9595 39.1006 95.8896 38.8826 95.7477 38.7202C95.6059 38.5598 95.4187 38.4776 95.1823 38.4776C94.9459 38.4776 94.7546 38.5578 94.6066 38.7202C94.4586 38.8806 94.3845 39.0965 94.3845 39.3658V42.3512C94.3845 42.4664 94.327 42.5219 94.2139 42.5219H93.1447C93.0296 42.5219 92.9741 42.4643 92.9741 42.3512V39.3761C92.9741 39.1067 92.9001 38.8909 92.752 38.7264C92.604 38.5619 92.4128 38.4796 92.1763 38.4796C91.9604 38.4796 91.7815 38.5434 91.6376 38.6709C91.4937 38.7983 91.4073 38.9772 91.3806 39.2054V42.3512C91.3806 42.4664 91.323 42.5219 91.21 42.5219H90.1305C90.0154 42.5219 89.9599 42.4643 89.9599 42.3512V37.5112C89.9599 37.3961 90.0174 37.3406 90.1305 37.3406H91.21C91.3251 37.3406 91.3806 37.3982 91.3806 37.5112V37.834C91.3806 37.8608 91.3888 37.8772 91.4053 37.8854C91.4217 37.8916 91.4382 37.8813 91.4505 37.8546C91.726 37.4578 92.1496 37.2604 92.7212 37.2604C93.0563 37.2604 93.3503 37.3303 93.5991 37.4681C93.8479 37.6058 94.0391 37.8053 94.1748 38.0684C94.181 38.0952 94.1933 38.1075 94.2098 38.1034C94.2262 38.0993 94.2427 38.089 94.255 38.0684C94.4092 37.7991 94.6107 37.5976 94.8595 37.4639C95.1083 37.3303 95.39 37.2624 95.7066 37.2624V37.2604ZM84.6655 38.4796C84.4496 38.4796 84.2707 38.531 84.1268 38.6359C83.9829 38.7408 83.8821 38.8867 83.8287 39.0738C83.7958 39.2013 83.7752 39.2856 83.769 39.3267C83.7629 39.3679 83.7793 39.3864 83.8204 39.3864H85.5352C85.5681 39.3864 85.5866 39.372 85.5866 39.3453C85.5866 39.2712 85.5722 39.1931 85.5455 39.1129C85.4859 38.9176 85.381 38.7634 85.233 38.6482C85.0849 38.5331 84.8978 38.4776 84.6675 38.4776L84.6655 38.4796ZM84.9287 41.4034C85.3728 41.3828 85.712 41.2286 85.9464 40.9387C85.9875 40.8914 86.0307 40.8688 86.078 40.8688C86.1191 40.8688 86.1561 40.8853 86.189 40.9202L86.7647 41.4753C86.8059 41.5165 86.8244 41.5555 86.8244 41.5967C86.8244 41.6439 86.81 41.6851 86.7832 41.718C86.5612 41.9935 86.2774 42.2094 85.932 42.3677C85.5866 42.526 85.2083 42.6041 84.7971 42.6041C84.1782 42.6041 83.6662 42.4458 83.2591 42.1312C82.852 41.8146 82.5786 41.3808 82.4367 40.8297C82.3565 40.5337 82.3154 40.2211 82.3154 39.8922C82.3154 39.5015 82.3524 39.1725 82.4264 38.9032C82.5601 38.4056 82.8315 38.0067 83.2386 37.7024C83.6457 37.4002 84.1268 37.2481 84.686 37.2481C85.344 37.2481 85.8683 37.4434 86.2548 37.832C86.6414 38.2226 86.8922 38.7696 87.0053 39.4748C87.032 39.6968 87.0526 39.9415 87.0649 40.2109C87.0649 40.326 87.0073 40.3815 86.8943 40.3815H83.7978C83.7567 40.3815 83.7382 40.4021 83.7382 40.4411C83.7587 40.583 83.7814 40.6858 83.8081 40.7537C83.8759 40.9613 84.0075 41.1217 84.207 41.2327C84.4044 41.3438 84.6449 41.3993 84.9287 41.3993V41.4034ZM79.4225 42.5939C78.9722 42.5939 78.5795 42.5301 78.2423 42.4026C77.9051 42.2752 77.6481 42.0963 77.4651 41.8681C77.2842 41.6398 77.1937 41.3808 77.1937 41.0909V41.0395C77.1937 40.9243 77.2513 40.8688 77.3644 40.8688H78.3821C78.4972 40.8688 78.5528 40.8894 78.5528 40.9284V40.9983C78.5528 41.1464 78.633 41.2718 78.7954 41.3767C78.9558 41.4815 79.1614 41.5329 79.4101 41.5329C79.6384 41.5329 79.8234 41.4897 79.9653 41.4013C80.1072 41.315 80.1771 41.1998 80.1771 41.058C80.1771 40.9367 80.1174 40.8462 79.9961 40.7866C79.8748 40.7269 79.6774 40.6632 79.4019 40.5953C79.073 40.5069 78.8262 40.4309 78.6658 40.363C78.23 40.215 77.8825 40.034 77.6275 39.8182C77.3726 39.6023 77.2451 39.2938 77.2451 38.8909C77.2451 38.3933 77.4404 37.9985 77.829 37.7066C78.2197 37.4146 78.7296 37.2686 79.3608 37.2686C79.7905 37.2686 80.1688 37.3385 80.4958 37.4763C80.8227 37.614 81.0735 37.8073 81.2524 38.0561C81.4313 38.3049 81.5197 38.5866 81.5197 38.9032C81.5197 38.9361 81.5053 38.9649 81.4744 38.9896C81.4436 39.0122 81.4025 39.0245 81.349 39.0245H80.3601C80.2449 39.0245 80.1894 39.0039 80.1894 38.9649V38.9053C80.1894 38.7572 80.1154 38.6339 79.9673 38.5331C79.8193 38.4324 79.6219 38.381 79.3731 38.381C79.1511 38.381 78.9681 38.4221 78.8242 38.5023C78.6802 38.5824 78.6083 38.6935 78.6083 38.8353C78.6083 38.9772 78.6782 39.0697 78.8159 39.1376C78.9537 39.2054 79.1799 39.2753 79.4965 39.3494C79.6918 39.3905 79.8789 39.4398 80.0619 39.5015C80.5451 39.6434 80.9255 39.8243 81.201 40.0464C81.4765 40.2684 81.6143 40.5912 81.6143 41.0148C81.6143 41.5124 81.4169 41.901 81.0201 42.1785C80.6232 42.4581 80.0928 42.5959 79.4266 42.5959L79.4225 42.5939ZM72.0227 41.3828C72.2386 41.3828 72.4236 41.315 72.5778 41.1813C72.732 41.0477 72.843 40.8626 72.9109 40.6262C72.9644 40.4453 72.9911 40.2088 72.9911 39.921C72.9911 39.6331 72.9644 39.4008 72.9109 39.2054C72.843 38.9772 72.732 38.7983 72.5778 38.6709C72.4236 38.5434 72.2324 38.4796 72.0021 38.4796C71.7718 38.4796 71.5929 38.5434 71.4367 38.6709C71.2825 38.7983 71.1715 38.9772 71.1036 39.2054C71.0501 39.4008 71.0234 39.6393 71.0234 39.921C71.0234 40.2026 71.0501 40.4309 71.1036 40.6262C71.1715 40.8606 71.2825 41.0456 71.4408 41.1813C71.5991 41.315 71.7924 41.3828 72.0206 41.3828H72.0227ZM72.0227 42.6041C71.4511 42.6041 70.9638 42.4561 70.5608 42.16C70.1578 41.8639 69.8823 41.461 69.7343 40.951C69.6397 40.6344 69.5924 40.2931 69.5924 39.923C69.5924 39.5139 69.6438 39.1561 69.7445 38.8539C69.8987 38.3563 70.1763 37.9656 70.5773 37.6839C70.9782 37.4023 71.4634 37.2604 72.035 37.2604C72.6066 37.2604 73.0589 37.4023 73.4516 37.6839C73.8444 37.9656 74.1178 38.3522 74.2741 38.8436C74.3748 39.152 74.4262 39.5056 74.4262 39.9025C74.4262 40.252 74.383 40.5912 74.2946 40.9202C74.1404 41.4445 73.8629 41.8557 73.4619 42.1559C73.061 42.454 72.584 42.6041 72.0247 42.6041H72.0227ZM68.5746 37.2686C68.7905 37.2686 68.9673 37.3097 69.1092 37.3899C69.1894 37.431 69.2202 37.501 69.1997 37.6017L69.0085 38.6606C69.0023 38.7202 68.9838 38.7572 68.953 38.7716C68.9221 38.786 68.8748 38.786 68.807 38.7716C68.7001 38.7449 68.6014 38.7305 68.515 38.7305C68.4677 38.7305 68.3916 38.7367 68.2827 38.751C68.0401 38.7716 67.8365 38.86 67.6679 39.0183C67.4993 39.1767 67.415 39.3864 67.415 39.6475V42.3492C67.415 42.4643 67.3574 42.5198 67.2444 42.5198H66.1649C66.0498 42.5198 65.9943 42.4623 65.9943 42.3492V37.5092C65.9943 37.394 66.0518 37.3385 66.1649 37.3385H67.2444C67.3595 37.3385 67.415 37.3961 67.415 37.5092V37.8217C67.415 37.8484 67.4212 37.8649 67.4356 37.8731C67.45 37.8793 67.4664 37.8731 67.487 37.8525C67.7563 37.4619 68.1182 37.2686 68.5767 37.2686H68.5746ZM63.5229 37.5112C63.5229 37.3961 63.5804 37.3406 63.6935 37.3406H64.7729C64.8881 37.3406 64.9436 37.3982 64.9436 37.5112V42.3512C64.9436 42.4664 64.886 42.5219 64.7729 42.5219H63.6935C63.5784 42.5219 63.5229 42.4643 63.5229 42.3512V42.0798C63.5229 42.0531 63.5146 42.0387 63.4982 42.0346C63.4817 42.0305 63.4653 42.0387 63.453 42.0593C63.1918 42.415 62.7765 42.5939 62.2131 42.5939C61.7032 42.5939 61.2817 42.4396 60.9528 42.1292C60.6238 41.8208 60.4593 41.3869 60.4593 40.8277V37.5112C60.4593 37.3961 60.5169 37.3406 60.63 37.3406H61.6991C61.8143 37.3406 61.8698 37.3982 61.8698 37.5112V40.4761C61.8698 40.7454 61.9417 40.9634 62.0857 41.132C62.2296 41.3006 62.4311 41.3849 62.686 41.3849C62.9143 41.3849 63.1034 41.317 63.2515 41.1772C63.3995 41.0395 63.49 40.8606 63.5229 40.6385V37.5133V37.5112ZM59.641 38.309C59.641 38.4241 59.5834 38.4796 59.4703 38.4796H58.5636C58.5225 38.4796 58.504 38.5002 58.504 38.5393V40.6262C58.504 40.8482 58.5492 41.0107 58.6397 41.1155C58.7301 41.2204 58.8761 41.2718 59.0776 41.2718H59.3593C59.4744 41.2718 59.53 41.3294 59.53 41.4424V42.3101C59.53 42.417 59.4724 42.4787 59.3593 42.491C59.1044 42.5054 58.9193 42.5116 58.8042 42.5116C58.247 42.5116 57.8296 42.417 57.5541 42.2299C57.2786 42.0408 57.1367 41.6912 57.1305 41.1813V38.5393C57.1305 38.4982 57.11 38.4796 57.0709 38.4796H56.5569C56.4417 38.4796 56.3862 38.4221 56.3862 38.309V37.5133C56.3862 37.3981 56.4438 37.3426 56.5569 37.3426H57.0709C57.112 37.3426 57.1305 37.3221 57.1305 37.283V36.1439C57.1305 36.0288 57.1881 35.9733 57.3012 35.9733H58.3292C58.4444 35.9733 58.4999 36.0309 58.4999 36.1439V37.283C58.4999 37.3241 58.5204 37.3426 58.5595 37.3426H59.4662C59.5814 37.3426 59.6369 37.4002 59.6369 37.5133V38.309H59.641ZM54.1965 37.5112C54.1965 37.3961 54.2541 37.3406 54.3672 37.3406H55.4466C55.5617 37.3406 55.6172 37.3982 55.6172 37.5112V42.3512C55.6172 42.4664 55.5597 42.5219 55.4466 42.5219H54.3672C54.252 42.5219 54.1965 42.4643 54.1965 42.3512V42.0798C54.1965 42.0531 54.1883 42.0387 54.1718 42.0346C54.1554 42.0305 54.1389 42.0387 54.1266 42.0593C53.8634 42.415 53.4501 42.5939 52.8868 42.5939C52.3769 42.5939 51.9554 42.4396 51.6264 42.1292C51.2974 41.8208 51.133 41.3869 51.133 40.8277V37.5112C51.133 37.3961 51.1905 37.3406 51.3036 37.3406H52.3728C52.4879 37.3406 52.5434 37.3982 52.5434 37.5112V40.4761C52.5434 40.7454 52.6154 40.9634 52.7593 41.132C52.9032 41.3006 53.1047 41.3849 53.3597 41.3849C53.5879 41.3849 53.7771 41.317 53.9251 41.1772C54.0731 41.0395 54.1636 40.8606 54.1965 40.6385V37.5133V37.5112ZM50.1728 37.3303C50.2879 37.3303 50.3434 37.3879 50.3434 37.501V38.3583C50.3434 38.4735 50.2859 38.529 50.1728 38.529H49.2558C49.2146 38.529 49.1961 38.5496 49.1961 38.5886V42.3492C49.1961 42.4643 49.1386 42.5198 49.0255 42.5198H47.946C47.8309 42.5198 47.7754 42.4623 47.7754 42.3492V38.5886C47.7754 38.5475 47.7548 38.529 47.7158 38.529H47.1812C47.066 38.529 47.0105 38.4714 47.0105 38.3583V37.501C47.0105 37.3858 47.0681 37.3303 47.1812 37.3303H47.7158C47.7569 37.3303 47.7754 37.3097 47.7754 37.2707V37.0589C47.7754 36.6415 47.8391 36.3187 47.9666 36.0864C48.0941 35.854 48.3017 35.6896 48.5875 35.5929C48.8733 35.4963 49.2681 35.4531 49.7718 35.4675H50.1049C50.2201 35.4675 50.2756 35.5251 50.2756 35.6382V36.3537C50.2756 36.4688 50.218 36.5243 50.1049 36.5243H49.8232C49.5888 36.5305 49.4244 36.5798 49.3339 36.6703C49.2434 36.7608 49.1982 36.9273 49.1982 37.1699V37.2707C49.1982 37.3118 49.2187 37.3303 49.2578 37.3303H50.1748H50.1728ZM41.5928 41.4137C41.9629 41.4137 42.261 41.2965 42.4892 41.06C42.7174 40.8256 42.8326 40.5131 42.8326 40.1224V37.9039C42.8326 37.5133 42.7195 37.2008 42.4954 36.9623C42.2713 36.7238 41.969 36.6045 41.5928 36.6045C41.2165 36.6045 40.9266 36.7238 40.7004 36.9623C40.4743 37.2008 40.3632 37.5153 40.3632 37.9039V40.1224C40.3632 40.5131 40.4763 40.8256 40.7004 41.06C40.9245 41.2944 41.2227 41.4137 41.5928 41.4137ZM41.5928 42.6329C41.0685 42.6329 40.6059 42.526 40.207 42.3101C39.806 42.0942 39.4956 41.794 39.2735 41.4075C39.0515 41.021 38.9404 40.5748 38.9404 40.071V37.9142C38.9404 37.4167 39.0515 36.9767 39.2735 36.5942C39.4956 36.2118 39.806 35.9137 40.207 35.7019C40.6079 35.4901 41.0685 35.3853 41.5928 35.3853C42.1171 35.3853 42.59 35.4901 42.9888 35.7019C43.3898 35.9137 43.7002 36.2118 43.9223 36.5942C44.1444 36.9767 44.2554 37.4167 44.2554 37.9142V40.071C44.2554 40.5748 44.1444 41.023 43.9223 41.4116C43.7002 41.8023 43.3898 42.1024 42.9888 42.3142C42.5879 42.526 42.1232 42.6309 41.5928 42.6309V42.6329Z" fill="white"/>
</g>
<defs>
<clipPath id="clip0_566_1990">
<rect width="119.047" height="44" fill="white" transform="translate(0.00170898)"/>
</clipPath>
</defs>
</svg>
