<svg width="116" height="48" viewBox="0 0 116 48" fill="none" xmlns="http://www.w3.org/2000/svg">
<path d="M48.7714 0L40.0739 5.39738V8.21659L48.7714 5.16681V0ZM105.925 9.77817C103.446 9.77817 101.446 10.6376 99.5395 12.4611V10.3022H93.9669V33.1493H99.6854V21.0341C99.6854 17.869 101.071 15.2384 104.925 15.2384C108.497 15.2384 109.497 17.869 109.497 21.0341V33.1493H115.164V19.2524C115.164 14.0332 112.07 9.76768 105.925 9.76768M74.4888 18.9799C75.3012 16.1502 77.4365 14.8087 80.0614 14.8087C82.6862 14.8087 84.7799 16.0035 85.4882 18.9799H74.4888ZM80.0197 9.77817C73.2597 9.77817 68.6453 15.0917 68.6453 21.6105C68.6453 28.1293 73.3117 33.4428 80.0197 33.4428C85.4465 33.4428 89.1651 30.4245 90.5921 26.0122H84.6861C83.8737 27.4061 82.5925 28.1712 80.353 28.1712C76.9678 28.1712 75.02 26.4419 74.4471 23.5284H91.2066C91.2587 22.952 91.3004 22.5223 91.3004 21.9459C91.3004 14.0437 86.2486 9.77817 80.0197 9.77817ZM58.0209 42.6865C54.969 42.6865 52.9274 40.4332 52.9274 37.4672C52.9274 34.5013 54.9794 32.248 58.0209 32.248C61.0624 32.248 63.1144 34.5013 63.1144 37.4672C63.1144 40.4332 61.0207 42.6865 58.0209 42.6865ZM59.875 22.4279L67.9162 15.2384V10.3022H48.5839V15.6157H59.7291L52.5837 21.8934L57.3438 27.448C51.1567 27.8358 47.3444 32.2376 47.3444 37.5092C47.3444 43.4515 52.1566 48 58.0521 48C63.9477 48 68.812 43.4515 68.812 37.5092C68.812 34.3441 67.9579 31.9965 65.9996 29.7013L59.8541 22.4175L59.875 22.4279ZM6.40905 12.5555V10.3022H0.836426V33.1493H6.55487V21.076C6.55487 17.9109 7.94022 15.469 12.1275 15.469H13.8462V10.0087H12.6066C10.1276 10.0087 8.32561 10.7319 6.41946 12.545M40.2093 33.1598H45.9695V9.4952L40.2093 10.931V33.1598ZM25.6893 27.8882C22.2103 27.8882 19.7833 25.352 19.7833 21.6105C19.7833 17.869 22.2103 15.2908 25.6893 15.2908C29.1683 15.2908 31.5952 17.8795 31.5952 21.6105C31.5952 25.3415 29.1683 27.8882 25.6893 27.8882ZM25.783 9.77817C19.1688 9.77817 14.0753 15.0498 14.0753 21.6105C14.0753 28.1712 18.5542 33.4428 25.1685 33.4428C27.4079 33.4428 29.9286 32.531 31.741 30.6131V33.1493H37.3137V21.076C37.3137 14.7983 32.4597 9.76768 25.7934 9.76768" fill="white"/>
</svg>
